<?xml version="1.0" encoding="UTF-8"?>
<svg version="1.1" xmlns="http://www.w3.org/2000/svg" width="512" height="512">
<path d="M0 0 C10.56 0 21.12 0 32 0 C32 9.9 32 19.8 32 30 C41.9 30 51.8 30 62 30 C62 39.9 62 49.8 62 60 C71.9 60 81.8 60 92 60 C92 69.9 92 79.8 92 90 C101.9 90 111.8 90 122 90 C122 109.8 122 129.6 122 150 C131.9 150 141.8 150 152 150 C152 190.26 152 230.52 152 272 C142.1 272 132.2 272 122 272 C122 281.57 122 291.14 122 301 C141.8 301 161.6 301 182 301 C182 310.9 182 320.8 182 331 C201.8 331 221.6 331 242 331 C242 340.9 242 350.8 242 361 C251.9 361 261.8 361 272 361 C272 381.13 272 401.26 272 422 C262.1 422 252.2 422 242 422 C242 431.9 242 441.8 242 452 C221.87 452 201.74 452 181 452 C181 442.1 181 432.2 181 422 C161.2 422 141.4 422 121 422 C121 412.1 121 402.2 121 392 C111.43 392 101.86 392 92 392 C92 401.9 92 411.8 92 422 C82.1 422 72.2 422 62 422 C62 431.9 62 441.8 62 452 C31.64 452 1.28 452 -30 452 C-30 442.1 -30 432.2 -30 422 C-39.9 422 -49.8 422 -60 422 C-60 412.1 -60 402.2 -60 392 C-69.57 392 -79.14 392 -89 392 C-89 401.9 -89 411.8 -89 422 C-108.8 422 -128.6 422 -149 422 C-149 431.9 -149 441.8 -149 452 C-169.13 452 -189.26 452 -210 452 C-210 442.1 -210 432.2 -210 422 C-219.9 422 -229.8 422 -240 422 C-240 401.87 -240 381.74 -240 361 C-230.1 361 -220.2 361 -210 361 C-210 351.1 -210 341.2 -210 331 C-190.2 331 -170.4 331 -150 331 C-150 321.1 -150 311.2 -150 301 C-130.2 301 -110.4 301 -90 301 C-90 291.43 -90 281.86 -90 272 C-99.9 272 -109.8 272 -120 272 C-120 231.74 -120 191.48 -120 150 C-110.1 150 -100.2 150 -90 150 C-90 140.1 -90 130.2 -90 120 C-80.1 120 -70.2 120 -60 120 C-60 110.1 -60 100.2 -60 90 C-49.77 90 -39.54 90 -29 90 C-29 99.9 -29 109.8 -29 120 C-19.43 120 -9.86 120 0 120 C0 100.53 0 81.06 0 61 C-9.9 61 -19.8 61 -30 61 C-30 50.77 -30 40.54 -30 30 C-20.1 30 -10.2 30 0 30 C0 20.1 0 10.2 0 0 Z " fill="#562F1B" transform="translate(240,30)"/>
<path d="M0 0 C9.9 0 19.8 0 30 0 C30 10.23 30 20.46 30 31 C39.9 31 49.8 31 60 31 C60 50.8 60 70.6 60 91 C69.9 91 79.8 91 90 91 C90 130.6 90 170.2 90 211 C80.1 211 70.2 211 60 211 C60 220.9 60 230.8 60 241 C50.1 241 40.2 241 30 241 C30 250.9 30 260.8 30 271 C0.3 271 -29.4 271 -60 271 C-60 261.1 -60 251.2 -60 241 C-69.9 241 -79.8 241 -90 241 C-90 231.1 -90 221.2 -90 211 C-99.9 211 -109.8 211 -120 211 C-120 171.4 -120 131.8 -120 91 C-110.1 91 -100.2 91 -90 91 C-90 81.1 -90 71.2 -90 61 C-80.1 61 -70.2 61 -60 61 C-60 70.9 -60 80.8 -60 91 C-50.1 91 -40.2 91 -30 91 C-30 81.1 -30 71.2 -30 61 C-20.1 61 -10.2 61 0 61 C0 40.87 0 20.74 0 0 Z " fill="#FE3938" transform="translate(271,90)"/>
<path d="M0 0 C10.23 0 20.46 0 31 0 C31 10.23 31 20.46 31 31 C21.1 31 11.2 31 1 31 C1 40.9 1 50.8 1 61 C-8.9 61 -18.8 61 -29 61 C-29 100.6 -29 140.2 -29 181 C-19.1 181 -9.2 181 1 181 C1 190.9 1 200.8 1 211 C10.9 211 20.8 211 31 211 C31 220.9 31 230.8 31 241 C60.7 241 90.4 241 121 241 C121 271.03 121 301.06 121 332 C91.3 332 61.6 332 31 332 C31 322.1 31 312.2 31 302 C21.1 302 11.2 302 1 302 C1 292.1 1 282.2 1 272 C-8.9 272 -18.8 272 -29 272 C-29 291.8 -29 311.6 -29 332 C-48.8 332 -68.6 332 -89 332 C-89 341.9 -89 351.8 -89 362 C-109.13 362 -129.26 362 -150 362 C-150 352.1 -150 342.2 -150 332 C-159.9 332 -169.8 332 -180 332 C-180 311.87 -180 291.74 -180 271 C-170.1 271 -160.2 271 -150 271 C-150 261.1 -150 251.2 -150 241 C-130.2 241 -110.4 241 -90 241 C-90 231.1 -90 221.2 -90 211 C-70.2 211 -50.4 211 -30 211 C-30 201.43 -30 191.86 -30 182 C-39.9 182 -49.8 182 -60 182 C-60 141.74 -60 101.48 -60 60 C-50.1 60 -40.2 60 -30 60 C-30 50.1 -30 40.2 -30 30 C-20.1 30 -10.2 30 0 30 C0 20.1 0 10.2 0 0 Z " fill="#724124" transform="translate(180,120)"/>
<path d="M0 0 C9.9 0 19.8 0 30 0 C30 9.9 30 19.8 30 30 C39.9 30 49.8 30 60 30 C60 69.6 60 109.2 60 150 C30.3 150 0.6 150 -30 150 C-30 110.4 -30 70.8 -30 30 C-20.1 30 -10.2 30 0 30 C0 20.1 0 10.2 0 0 Z " fill="#FFD322" transform="translate(241,211)"/>
<path d="M0 0 C19.47 0 38.94 0 59 0 C59 9.57 59 19.14 59 29 C89.03 29 119.06 29 150 29 C150 49.13 150 69.26 150 90 C120.3 90 90.6 90 60 90 C59.67 80.1 59.34 70.2 59 60 C29.795 59.505 29.795 59.505 0 59 C0 39.53 0 20.06 0 0 Z " fill="#814E2B" transform="translate(362,362)"/>
<path d="M0 0 C9.9 0 19.8 0 30 0 C30 9.9 30 19.8 30 30 C39.9 30 49.8 30 60 30 C60 39.9 60 49.8 60 60 C89.7 60 119.4 60 150 60 C150 50.1 150 40.2 150 30 C159.9 30 169.8 30 180 30 C180 20.1 180 10.2 180 0 C189.9 0 199.8 0 210 0 C210 9.9 210 19.8 210 30 C200.43 30 190.86 30 181 30 C181 39.9 181 49.8 181 60 C171.1 60 161.2 60 151 60 C151 69.9 151 79.8 151 90 C120.64 90 90.28 90 59 90 C59 80.1 59 70.2 59 60 C49.1 60 39.2 60 29 60 C29 50.1 29 40.2 29 30 C19.43 30 9.86 30 0 30 C0 20.1 0 10.2 0 0 Z " fill="#000000" transform="translate(151,392)"/>
<path d="M0 0 C29.7 0 59.4 0 90 0 C90 19.8 90 39.6 90 60 C60.3 60 30.6 60 0 60 C0 40.2 0 20.4 0 0 Z " fill="#804D2A" transform="translate(211,392)"/>
<path d="M0 0 C20.13 0 40.26 0 61 0 C61 9.9 61 19.8 61 30 C80.8 30 100.6 30 121 30 C121 39.9 121 49.8 121 60 C100.87 60 80.74 60 60 60 C60 50.1 60 40.2 60 30 C40.2 30 20.4 30 0 30 C0 20.1 0 10.2 0 0 Z " fill="#000000" transform="translate(361,422)"/>
<path d="M0 0 C9.9 0 19.8 0 30 0 C30 40.26 30 80.52 30 122 C20.1 122 10.2 122 0 122 C0 81.74 0 41.48 0 0 Z " fill="#000000" transform="translate(362,180)"/>
<path d="M0 0 C9.9 0 19.8 0 30 0 C30 40.26 30 80.52 30 122 C20.1 122 10.2 122 0 122 C0 81.74 0 41.48 0 0 Z " fill="#000000" transform="translate(120,180)"/>
<path d="M0 0 C10.23 0 20.46 0 31 0 C31 19.8 31 39.6 31 60 C21.1 60 11.2 60 1 60 C1 69.9 1 79.8 1 90 C-8.9 90 -18.8 90 -29 90 C-29 79.77 -29 69.54 -29 59 C-19.43 59 -9.86 59 0 59 C0 39.53 0 20.06 0 0 Z " fill="#010000" transform="translate(240,91)"/>
<path d="M0 0 C29.7 0 59.4 0 90 0 C90 9.9 90 19.8 90 30 C60.3 30 30.6 30 0 30 C0 20.1 0 10.2 0 0 Z " fill="#850112" transform="translate(211,361)"/>
<path d="M0 0 C29.7 0 59.4 0 90 0 C90 9.9 90 19.8 90 30 C60.3 30 30.6 30 0 30 C0 20.1 0 10.2 0 0 Z " fill="#FFD323" transform="translate(211,331)"/>
<path d="M0 0 C20.13 0 40.26 0 61 0 C61 9.9 61 19.8 61 30 C40.87 30 20.74 30 0 30 C0 20.1 0 10.2 0 0 Z " fill="#000000" transform="translate(30,452)"/>
<path d="M0 0 C9.9 0 19.8 0 30 0 C30 20.13 30 40.26 30 61 C20.1 61 10.2 61 0 61 C0 40.87 0 20.74 0 0 Z " fill="#000000" transform="translate(482,391)"/>
<path d="M0 0 C9.9 0 19.8 0 30 0 C30 20.13 30 40.26 30 61 C20.1 61 10.2 61 0 61 C0 40.87 0 20.74 0 0 Z " fill="#000000" transform="translate(0,391)"/>
<path d="M0 0 C9.9 0 19.8 0 30 0 C30 9.9 30 19.8 30 30 C39.9 30 49.8 30 60 30 C60 39.9 60 49.8 60 60 C49.77 60 39.54 60 29 60 C29 50.1 29 40.2 29 30 C19.43 30 9.86 30 0 30 C0 20.1 0 10.2 0 0 Z " fill="#000000" transform="translate(272,60)"/>
<path d="M0 0 C0 10.23 0 20.46 0 31 C-19.8 31 -39.6 31 -60 31 C-60 21.1 -60 11.2 -60 1 C-52.33165846 0.8696731 -44.66331669 0.73936158 -36.99497223 0.60920715 C-33.4243004 0.54859764 -29.85362908 0.48795789 -26.28295898 0.42724609 C-22.18994298 0.35765426 -18.09692469 0.28819823 -14.00390625 0.21875 C-12.71851456 0.19687622 -11.43312286 0.17500244 -10.10877991 0.15246582 C-8.92763107 0.13244507 -7.74648224 0.11242432 -6.52954102 0.09179688 C-5.48363297 0.07403198 -4.43772491 0.05626709 -3.36012268 0.03796387 C-1 0 -1 0 0 0 Z " fill="#7F4D2A" transform="translate(482,421)"/>
<path d="M0 0 C19.8 0 39.6 0 60 0 C60 9.9 60 19.8 60 30 C40.2 30 20.4 30 0 30 C0 20.1 0 10.2 0 0 Z " fill="#000000" transform="translate(91,422)"/>
<path d="M0 0 C19.8 0 39.6 0 60 0 C60 9.9 60 19.8 60 30 C40.2 30 20.4 30 0 30 C0 20.1 0 10.2 0 0 Z " fill="#000000" transform="translate(422,361)"/>
<path d="M0 0 C19.8 0 39.6 0 60 0 C60 9.9 60 19.8 60 30 C40.2 30 20.4 30 0 30 C0 20.1 0 10.2 0 0 Z " fill="#000000" transform="translate(30,361)"/>
<path d="M0 0 C19.8 0 39.6 0 60 0 C60 9.9 60 19.8 60 30 C40.2 30 20.4 30 0 30 C0 20.1 0 10.2 0 0 Z " fill="#000000" transform="translate(362,331)"/>
<path d="M0 0 C19.8 0 39.6 0 60 0 C60 9.9 60 19.8 60 30 C40.2 30 20.4 30 0 30 C0 20.1 0 10.2 0 0 Z " fill="#000000" transform="translate(90,331)"/>
<path d="M0 0 C9.9 0 19.8 0 30 0 C30 19.8 30 39.6 30 60 C20.1 60 10.2 60 0 60 C0 40.2 0 20.4 0 0 Z " fill="#FFEFB4" transform="translate(241,271)"/>
<path d="M0 0 C9.9 0 19.8 0 30 0 C30 19.8 30 39.6 30 60 C20.1 60 10.2 60 0 60 C0 40.2 0 20.4 0 0 Z " fill="#000000" transform="translate(332,120)"/>
<path d="M0 0 C19.8 0 39.6 0 60 0 C60 9.9 60 19.8 60 30 C52.33162433 30.02094549 44.66335169 30.04098358 36.99497223 30.05175018 C33.42428875 30.0570399 29.85362885 30.06411339 26.28295898 30.07543945 C22.18993903 30.08834176 18.0969442 30.09322906 14.00390625 30.09765625 C12.07581871 30.10539818 12.07581871 30.10539818 10.10877991 30.11329651 C8.33705666 30.11340981 8.33705666 30.11340981 6.52954102 30.11352539 C4.96067894 30.11685631 4.96067894 30.11685631 3.36012268 30.12025452 C1 30 1 30 0 29 C0 19.43 0 9.86 0 0 Z " fill="#B36C3B" transform="translate(30,392)"/>
<path d="M0 0 C29.7 0.495 29.7 0.495 60 1 C60 10.57 60 20.14 60 30 C40.2 30 20.4 30 0 30 C0 20.1 0 10.2 0 0 Z " fill="#804D2A" transform="translate(30,421)"/>
<path d="M0 0 C19.8 0 39.6 0 60 0 C60 9.57 60 19.14 60 29 C40.2 29 20.4 29 0 29 C0 19.43 0 9.86 0 0 Z " fill="#B36C3B" transform="translate(422,392)"/>
<path d="M0 0 C19.47 0 38.94 0 59 0 C59 9.57 59 19.14 59 29 C39.53 29 20.06 29 0 29 C0 19.43 0 9.86 0 0 Z " fill="#814E2B" transform="translate(91,392)"/>
<path d="M0 0 C19.47 0 38.94 0 59 0 C59 9.57 59 19.14 59 29 C39.53 29 20.06 29 0 29 C0 19.43 0 9.86 0 0 Z " fill="#B46D3C" transform="translate(362,362)"/>
<path d="M0 0 C19.47 0 38.94 0 59 0 C59 9.57 59 19.14 59 29 C39.53 29 20.06 29 0 29 C0 19.43 0 9.86 0 0 Z " fill="#B46D3C" transform="translate(91,362)"/>
<path d="M0 0 C10.23 0 20.46 0 31 0 C31 9.9 31 19.8 31 30 C20.77 30 10.54 30 0 30 C0 20.1 0 10.2 0 0 Z " fill="#000000" transform="translate(180,120)"/>
<path d="M0 0 C9.9 0 19.8 0 30 0 C30 10.23 30 20.46 30 31 C20.1 31 10.2 31 0 31 C0 20.77 0 10.54 0 0 Z " fill="#000000" transform="translate(210,60)"/>
<path d="M0 0 C9.9 0 19.8 0 30 0 C30 9.9 30 19.8 30 30 C20.1 30 10.2 30 0 30 C0 20.1 0 10.2 0 0 Z " fill="#5B361D" transform="translate(301,392)"/>
<path d="M0 0 C9.9 0 19.8 0 30 0 C30 9.9 30 19.8 30 30 C20.1 30 10.2 30 0 30 C0 20.1 0 10.2 0 0 Z " fill="#B36C3B" transform="translate(241,392)"/>
<path d="M0 0 C9.9 0 19.8 0 30 0 C30 9.9 30 19.8 30 30 C20.1 30 10.2 30 0 30 C0 20.1 0 10.2 0 0 Z " fill="#850012" transform="translate(301,331)"/>
<path d="M0 0 C9.9 0 19.8 0 30 0 C30 9.9 30 19.8 30 30 C20.1 30 10.2 30 0 30 C0 20.1 0 10.2 0 0 Z " fill="#FF3A38" transform="translate(271,331)"/>
<path d="M0 0 C9.9 0 19.8 0 30 0 C30 9.9 30 19.8 30 30 C20.1 30 10.2 30 0 30 C0 20.1 0 10.2 0 0 Z " fill="#FF3A38" transform="translate(211,331)"/>
<path d="M0 0 C9.9 0 19.8 0 30 0 C30 9.9 30 19.8 30 30 C20.1 30 10.2 30 0 30 C0 20.1 0 10.2 0 0 Z " fill="#850012" transform="translate(181,331)"/>
<path d="M0 0 C9.9 0 19.8 0 30 0 C30 9.9 30 19.8 30 30 C20.1 30 10.2 30 0 30 C0 20.1 0 10.2 0 0 Z " fill="#FFD122" transform="translate(181,211)"/>
<path d="M0 0 C9.9 0 19.8 0 30 0 C30 9.9 30 19.8 30 30 C20.1 30 10.2 30 0 30 C0 20.1 0 10.2 0 0 Z " fill="#FFD122" transform="translate(271,181)"/>
<path d="M0 0 C9.9 0 19.8 0 30 0 C30 9.9 30 19.8 30 30 C20.1 30 10.2 30 0 30 C0 20.1 0 10.2 0 0 Z " fill="#000000" transform="translate(150,150)"/>
<path d="M0 0 C9.9 0 19.8 0 30 0 C30 9.9 30 19.8 30 30 C20.1 30 10.2 30 0 30 C0 20.1 0 10.2 0 0 Z " fill="#FD3838" transform="translate(241,60)"/>
<path d="M0 0 C9.9 0 19.8 0 30 0 C30 9.57 30 19.14 30 29 C20.1 29 10.2 29 0 29 C0 19.43 0 9.86 0 0 Z " fill="#000000" transform="translate(332,302)"/>
<path d="M0 0 C9.9 0 19.8 0 30 0 C30 9.57 30 19.14 30 29 C20.1 29 10.2 29 0 29 C0 19.43 0 9.86 0 0 Z " fill="#000000" transform="translate(150,302)"/>
<path d="M0 0 C9.57 0 19.14 0 29 0 C29 9.57 29 19.14 29 29 C19.43 29 9.86 29 0 29 C0 19.43 0 9.86 0 0 Z " fill="#B46D3C" transform="translate(332,332)"/>
<path d="M0 0 C9.57 0 19.14 0 29 0 C29 9.57 29 19.14 29 29 C19.43 29 9.86 29 0 29 C0 19.43 0 9.86 0 0 Z " fill="#B46D3C" transform="translate(151,332)"/>
<path d="M0 0 C19.8 0 39.6 0 60 0 C60 0.33 60 0.66 60 1 C40.53 1 21.06 1 1 1 C1 10.57 1 20.14 1 30 C30.7 30 60.4 30 91 30 C91 30.33 91 30.66 91 31 C81.1 31 71.2 31 61 31 C61 40.9 61 50.8 61 61 C41.2 61 21.4 61 1 61 C1 70.9 1 80.8 1 91 C-19.13 91 -39.26 91 -60 91 C-60 90.67 -60 90.34 -60 90 C-40.2 90 -20.4 90 0 90 C0 70.53 0 51.06 0 31 C-19.8 31 -39.6 31 -60 31 C-60 30.67 -60 30.34 -60 30 C-40.2 30 -20.4 30 0 30 C0 20.1 0 10.2 0 0 Z M1 31 C1 40.57 1 50.14 1 60 C20.47 60 39.94 60 60 60 C60 50.43 60 40.86 60 31 C40.53 31 21.06 31 1 31 Z " fill="#643D21" transform="translate(90,361)"/>
</svg>
